<mxfile host="app.diagrams.net" modified="2022-05-06T03:52:26.843Z" agent="5.0 (Windows)" etag="NttMxRVj5PX-1eRLwWeG" version="17.4.6" type="github">
  <diagram id="-LhsDucrHnpyTGSc9BmT" name="Page-1">
    <mxGraphModel dx="1209" dy="666" grid="1" gridSize="10" guides="1" tooltips="1" connect="1" arrows="1" fold="1" page="1" pageScale="1" pageWidth="1654" pageHeight="2336" math="0" shadow="0">
      <root>
        <mxCell id="0" />
        <mxCell id="1" parent="0" />
        <mxCell id="t8zVXc_RM-DFqQ7AGpTx-1" value="" style="pointerEvents=1;verticalLabelPosition=bottom;shadow=0;dashed=0;align=center;html=1;verticalAlign=top;shape=mxgraph.electrical.waveforms.square_wave;" vertex="1" parent="1">
          <mxGeometry x="480" y="320" width="80" height="80" as="geometry" />
        </mxCell>
        <mxCell id="t8zVXc_RM-DFqQ7AGpTx-2" value="" style="pointerEvents=1;verticalLabelPosition=bottom;shadow=0;dashed=0;align=center;html=1;verticalAlign=top;shape=mxgraph.electrical.waveforms.square_wave;" vertex="1" parent="1">
          <mxGeometry x="560" y="320" width="80" height="80" as="geometry" />
        </mxCell>
        <mxCell id="t8zVXc_RM-DFqQ7AGpTx-3" value="" style="pointerEvents=1;verticalLabelPosition=bottom;shadow=0;dashed=0;align=center;html=1;verticalAlign=top;shape=mxgraph.electrical.waveforms.square_wave;" vertex="1" parent="1">
          <mxGeometry x="640" y="320" width="80" height="80" as="geometry" />
        </mxCell>
        <mxCell id="t8zVXc_RM-DFqQ7AGpTx-4" value="" style="pointerEvents=1;verticalLabelPosition=bottom;shadow=0;dashed=0;align=center;html=1;verticalAlign=top;shape=mxgraph.electrical.waveforms.square_wave;" vertex="1" parent="1">
          <mxGeometry x="490" y="420" width="80" height="80" as="geometry" />
        </mxCell>
        <mxCell id="t8zVXc_RM-DFqQ7AGpTx-5" value="" style="pointerEvents=1;verticalLabelPosition=bottom;shadow=0;dashed=0;align=center;html=1;verticalAlign=top;shape=mxgraph.electrical.waveforms.square_wave;" vertex="1" parent="1">
          <mxGeometry x="570" y="420" width="80" height="80" as="geometry" />
        </mxCell>
        <mxCell id="t8zVXc_RM-DFqQ7AGpTx-6" value="" style="pointerEvents=1;verticalLabelPosition=bottom;shadow=0;dashed=0;align=center;html=1;verticalAlign=top;shape=mxgraph.electrical.waveforms.square_wave;" vertex="1" parent="1">
          <mxGeometry x="650" y="420" width="80" height="80" as="geometry" />
        </mxCell>
        <mxCell id="t8zVXc_RM-DFqQ7AGpTx-7" value="" style="pointerEvents=1;verticalLabelPosition=bottom;shadow=0;dashed=0;align=center;html=1;verticalAlign=top;shape=mxgraph.electrical.waveforms.square_wave;" vertex="1" parent="1">
          <mxGeometry x="477" y="140" width="40" height="80" as="geometry" />
        </mxCell>
        <mxCell id="t8zVXc_RM-DFqQ7AGpTx-8" value="" style="pointerEvents=1;verticalLabelPosition=bottom;shadow=0;dashed=0;align=center;html=1;verticalAlign=top;shape=mxgraph.electrical.waveforms.square_wave;" vertex="1" parent="1">
          <mxGeometry x="517" y="140" width="40" height="80" as="geometry" />
        </mxCell>
        <mxCell id="t8zVXc_RM-DFqQ7AGpTx-9" value="" style="pointerEvents=1;verticalLabelPosition=bottom;shadow=0;dashed=0;align=center;html=1;verticalAlign=top;shape=mxgraph.electrical.waveforms.square_wave;" vertex="1" parent="1">
          <mxGeometry x="557" y="140" width="40" height="80" as="geometry" />
        </mxCell>
        <mxCell id="t8zVXc_RM-DFqQ7AGpTx-10" value="" style="pointerEvents=1;verticalLabelPosition=bottom;shadow=0;dashed=0;align=center;html=1;verticalAlign=top;shape=mxgraph.electrical.waveforms.square_wave;" vertex="1" parent="1">
          <mxGeometry x="470" y="230" width="40" height="80" as="geometry" />
        </mxCell>
        <mxCell id="t8zVXc_RM-DFqQ7AGpTx-11" value="" style="pointerEvents=1;verticalLabelPosition=bottom;shadow=0;dashed=0;align=center;html=1;verticalAlign=top;shape=mxgraph.electrical.waveforms.square_wave;" vertex="1" parent="1">
          <mxGeometry x="510" y="230" width="40" height="80" as="geometry" />
        </mxCell>
        <mxCell id="t8zVXc_RM-DFqQ7AGpTx-12" value="" style="pointerEvents=1;verticalLabelPosition=bottom;shadow=0;dashed=0;align=center;html=1;verticalAlign=top;shape=mxgraph.electrical.waveforms.square_wave;" vertex="1" parent="1">
          <mxGeometry x="550" y="230" width="40" height="80" as="geometry" />
        </mxCell>
      </root>
    </mxGraphModel>
  </diagram>
</mxfile>
